<svg width="140" height="48" viewBox="0 0 140 48" fill="none" xmlns="http://www.w3.org/2000/svg">
<g clip-path="url(#clip0_2004_2873)">
<path d="M13.5059 8.34047C24.0098 5.53736 34.3744 2.7708 44.7391 0.00546265C44.8099 0.0895193 44.882 0.172358 44.9529 0.256414C38.1644 8.99343 31.3759 17.7292 24.4238 26.677C25.6196 26.7355 26.5515 26.7806 27.6739 26.8366C27.6739 30.2939 27.724 33.6598 27.6019 37.0196C27.5884 37.3802 26.582 37.7067 25.9249 38.1185C21.7148 28.0207 17.6537 18.2872 13.5059 8.34047Z" fill="#E3572D"/>
<path d="M16.9745 48.0055C11.3475 37.5398 5.81467 27.2508 0.176758 16.7644C2.24578 16.3124 4.1084 15.9056 6.17498 15.4536C5.35543 13.9077 4.61527 12.5116 3.75053 10.8817C5.53986 10.4943 7.18018 10.1385 9.02935 9.73897C8.32706 8.14068 7.6956 6.70562 6.92002 4.94287C9.71455 5.16946 12.2013 5.37168 15.1204 5.60923C13.4386 6.00881 12.1524 6.31458 10.644 6.67273C10.815 7.22093 10.9249 7.71552 11.1179 8.17723C15.0373 17.5307 18.9824 26.8743 22.8725 36.24C23.3025 37.2754 23.9315 37.6994 25.0038 37.8699C27.9755 38.3438 30.9312 38.9212 34.0348 39.8288C28.4188 42.5211 22.8017 45.2121 16.9745 48.0055ZM4.33313 17.8108C9.07454 27.2154 13.7085 36.4081 18.4157 45.7457C20.9989 44.6334 23.4038 43.5992 25.8087 42.5637C25.7648 42.4455 25.7208 42.3262 25.6768 42.208C23.6652 42.7099 21.6524 43.2118 19.5052 43.7478C15.2633 34.7245 11.0495 25.7609 6.79056 16.7023C5.8904 17.1079 5.2223 17.4101 4.33313 17.8108ZM29.8992 40.0932C29.8686 39.9653 29.8381 39.8386 29.8076 39.7107C27.559 39.4975 25.3141 39.2221 23.0606 39.0979C21.9773 39.0382 21.4533 38.5704 21.0527 37.6214C17.5607 29.3692 14.0334 21.1317 10.5097 12.8929C10.2226 12.2205 9.87822 11.5724 9.53989 10.8683C8.74477 11.1277 8.10843 11.3348 7.36827 11.5748C7.66751 12.2765 7.8837 12.8174 8.12553 13.3461C11.9668 21.7408 15.8117 30.1343 19.653 38.529C20.9488 41.3613 20.9476 41.3918 24.0866 40.9922C26.031 40.7461 27.962 40.3965 29.8992 40.0932Z" fill="#C2DF93"/>
<path d="M128.968 22.1501C132.725 23.1625 136.023 24.3855 138.493 27.1107C140.559 29.3887 140.422 32.0493 138.161 34.2872C135.245 37.1743 131.512 38.5996 127.684 39.7728C117.108 43.0132 106.228 43.8111 95.2394 43.6235C91.9624 43.5675 88.6891 43.3762 85.4133 43.2471C85.4109 43.1143 85.4084 42.9803 85.4072 42.8475C85.9422 42.8475 86.4772 42.8549 87.0121 42.8463C92.887 42.7513 98.7789 42.9024 104.633 42.4955C112.925 41.9193 121.129 40.5902 128.798 37.1743C130.879 36.2473 132.903 34.9755 134.607 33.4722C137.447 30.9675 137.265 27.6954 134.276 25.3552C132.751 24.1589 130.942 23.322 128.968 22.1501Z" fill="#E3572D"/>
<path d="M57.28 16.3563C53.1126 12.0755 48.9452 7.79591 44.7021 3.43837C45.2054 2.72937 45.6536 2.09833 46.2655 1.23584C50.1324 6.32553 53.8515 11.2203 57.5707 16.1151C57.4742 16.1955 57.3777 16.2759 57.28 16.3563Z" fill="#E3572D"/>
<path d="M44.0611 12.2034C43.2819 12.5542 42.8617 12.9075 42.5026 12.8551C42.2083 12.8125 41.986 12.285 41.7319 11.9732C42.0825 11.7003 42.4098 11.2654 42.7921 11.2093C43.0559 11.1704 43.3967 11.6576 44.0611 12.2034Z" fill="#E3572D"/>
<path d="M41.793 15.0967C41.793 14.5972 41.793 14.194 41.793 13.636C42.3169 13.5983 42.8104 13.5617 43.327 13.5252C43.8742 15.0479 43.3258 15.4512 41.793 15.0967Z" fill="#E3572D"/>
<path d="M44.2734 13.0001C44.2734 12.229 44.2734 11.8136 44.2734 11.2739C44.7644 11.2276 45.2163 11.185 45.86 11.1241C45.86 11.6966 46.0408 12.3131 45.8136 12.5616C45.5449 12.8576 44.9244 12.8369 44.2734 13.0001Z" fill="#E3572D"/>
<path d="M45.7976 15.1466C45.3042 15.1466 44.8547 15.1466 44.415 15.1466C44.1463 13.5471 44.1463 13.5471 45.7976 13.6226C45.7976 14.099 45.7976 14.5826 45.7976 15.1466Z" fill="#E3572D"/>
<path d="M32.7195 37V18.1491H36.2803V33.6749H44.3966V37H32.7195ZM47.157 20.8982V17.7564H50.7178V20.8982H47.157ZM47.157 37V22.8618H50.7178V37H47.157ZM58.7377 37L53.606 22.8618H57.1668L60.518 32.6538L63.8693 22.8618H67.43L62.2984 37H58.7377ZM76.1288 37.3927C74.6801 37.3927 73.4015 37.0829 72.2932 36.4633C71.1935 35.8349 70.3295 34.9753 69.7012 33.8844C69.0815 32.7847 68.7717 31.528 68.7717 30.1142C68.7717 28.5695 69.0772 27.2255 69.6881 26.0822C70.299 24.9389 71.1412 24.0531 72.2146 23.4247C73.2881 22.7876 74.523 22.4691 75.9193 22.4691C77.403 22.4691 78.6641 22.8182 79.7026 23.5164C80.7412 24.2145 81.5092 25.1964 82.0066 26.4618C82.5041 27.7273 82.6786 29.2153 82.5303 30.9258H79.0088V29.6167C79.0088 28.1767 78.7775 27.1425 78.315 26.5142C77.8612 25.8771 77.115 25.5585 76.0764 25.5585C74.8633 25.5585 73.9688 25.9295 73.3928 26.6713C72.8255 27.4044 72.5419 28.4909 72.5419 29.9309C72.5419 31.2487 72.8255 32.2698 73.3928 32.9942C73.9688 33.7098 74.811 34.0676 75.9193 34.0676C76.6175 34.0676 77.2153 33.9149 77.7128 33.6095C78.2103 33.304 78.5899 32.8633 78.8517 32.2873L82.4124 33.3084C81.8801 34.6 81.0379 35.6036 79.8859 36.3193C78.7426 37.0349 77.4903 37.3927 76.1288 37.3927ZM71.4423 30.9258V28.2815H80.8153V30.9258H71.4423ZM91.2832 37.3927C89.5029 37.3927 88.0629 36.9913 86.9632 36.1884C85.8723 35.3767 85.209 34.2335 84.9734 32.7585L88.6127 32.2087C88.761 32.872 89.0883 33.3913 89.5945 33.7665C90.1094 34.1418 90.7596 34.3295 91.545 34.3295C92.1909 34.3295 92.6883 34.2073 93.0374 33.9629C93.3865 33.7098 93.5611 33.3607 93.5611 32.9156C93.5611 32.6364 93.4912 32.4138 93.3516 32.248C93.212 32.0735 92.8978 31.9033 92.409 31.7375C91.929 31.5716 91.1785 31.3535 90.1574 31.0829C89.0054 30.7862 88.0847 30.4545 87.3952 30.088C86.7058 29.7215 86.2083 29.2851 85.9029 28.7789C85.5974 28.264 85.4447 27.6444 85.4447 26.92C85.4447 26.0124 85.676 25.2269 86.1385 24.5636C86.601 23.8916 87.2512 23.3767 88.089 23.0189C88.9356 22.6524 89.9305 22.4691 91.0738 22.4691C92.1821 22.4691 93.164 22.6393 94.0192 22.9796C94.8745 23.32 95.564 23.8044 96.0876 24.4327C96.62 25.0611 96.9472 25.8029 97.0694 26.6582L93.4301 27.3127C93.369 26.7891 93.1421 26.3745 92.7494 26.0691C92.3567 25.7636 91.8243 25.5847 91.1523 25.5324C90.4978 25.4887 89.9698 25.576 89.5683 25.7942C89.1756 26.0124 88.9792 26.3265 88.9792 26.7367C88.9792 26.9811 89.0621 27.1862 89.228 27.352C89.4025 27.5178 89.756 27.688 90.2883 27.8625C90.8294 28.0371 91.6498 28.264 92.7494 28.5433C93.8229 28.8225 94.6825 29.1498 95.3283 29.5251C95.9829 29.8916 96.4585 30.3367 96.7552 30.8604C97.052 31.3753 97.2003 31.9993 97.2003 32.7324C97.2003 34.1811 96.6767 35.32 95.6294 36.1491C94.5821 36.9782 93.1334 37.3927 91.2832 37.3927ZM108.833 37C107.855 37.1833 106.895 37.2618 105.953 37.2356C105.019 37.2182 104.181 37.0567 103.439 36.7513C102.706 36.4371 102.148 35.9353 101.764 35.2458C101.415 34.6 101.231 33.9455 101.214 33.2822C101.196 32.6102 101.188 31.8509 101.188 31.0044V18.9345H104.748V30.7949C104.748 31.3447 104.753 31.8422 104.761 32.2873C104.779 32.7236 104.871 33.0727 105.036 33.3345C105.351 33.832 105.852 34.1025 106.542 34.1462C107.231 34.1898 107.995 34.1549 108.833 34.0415V37ZM98.7789 25.6109V22.8618H108.833V25.6109H98.7789ZM116.183 37.3927C115.171 37.3927 114.311 37.2007 113.604 36.8167C112.906 36.424 112.374 35.9047 112.007 35.2589C111.649 34.6044 111.471 33.8844 111.471 33.0989C111.471 32.4444 111.571 31.8465 111.772 31.3055C111.972 30.7644 112.295 30.2887 112.74 29.8785C113.194 29.4596 113.801 29.1105 114.56 28.8313C115.084 28.6393 115.708 28.4691 116.432 28.3207C117.156 28.1724 117.977 28.0327 118.893 27.9018C119.809 27.7622 120.817 27.6095 121.917 27.4436L120.634 28.1505C120.634 27.3127 120.433 26.6975 120.032 26.3047C119.631 25.912 118.959 25.7156 118.016 25.7156C117.492 25.7156 116.947 25.8422 116.38 26.0953C115.812 26.3484 115.415 26.7978 115.188 27.4436L111.968 26.4225C112.326 25.2531 112.998 24.3018 113.984 23.5687C114.97 22.8356 116.314 22.4691 118.016 22.4691C119.264 22.4691 120.372 22.6611 121.341 23.0451C122.31 23.4291 123.043 24.0924 123.54 25.0349C123.82 25.5585 123.985 26.0822 124.038 26.6058C124.09 27.1295 124.116 27.7142 124.116 28.36V37H121.001V34.0938L121.446 34.696C120.756 35.6473 120.01 36.3367 119.207 36.7644C118.413 37.1833 117.405 37.3927 116.183 37.3927ZM116.943 34.5913C117.597 34.5913 118.147 34.4778 118.592 34.2509C119.046 34.0153 119.404 33.7491 119.665 33.4524C119.936 33.1556 120.119 32.9069 120.215 32.7062C120.399 32.3222 120.503 31.8771 120.529 31.3709C120.564 30.856 120.582 30.4284 120.582 30.088L121.629 30.3498C120.573 30.5244 119.718 30.6727 119.063 30.7949C118.409 30.9084 117.881 31.0131 117.479 31.1091C117.078 31.2051 116.724 31.3098 116.419 31.4233C116.07 31.5629 115.786 31.7156 115.568 31.8815C115.359 32.0385 115.201 32.2131 115.097 32.4051C115.001 32.5971 114.953 32.8109 114.953 33.0465C114.953 33.3695 115.031 33.6487 115.188 33.8844C115.354 34.1113 115.585 34.2858 115.882 34.408C116.179 34.5302 116.532 34.5913 116.943 34.5913Z" fill="white"/>
</g>
<defs>
<clipPath id="clip0_2004_2873">
<rect width="140" height="48" fill="white"/>
</clipPath>
</defs>
</svg>
